<svg xmlns="http://www.w3.org/2000/svg" viewBox="0 0 400 250" fill="none">
  <rect width="400" height="250" rx="12" fill="#F7F6F5"/>
  <rect x="80" y="100" width="240" height="80" rx="8" fill="#1A1A1A"/>
  <rect x="90" y="108" width="220" height="60" rx="4" fill="#2A2A2A"/>
  <rect x="100" y="116" width="40" height="44" rx="3" fill="#333"/>
  <rect x="148" y="116" width="40" height="44" rx="3" fill="#333"/>
  <rect x="196" y="116" width="40" height="44" rx="3" fill="#333"/>
  <rect x="244" y="116" width="56" height="44" rx="3" fill="#333"/>
  <rect x="107" y="122" width="26" height="6" rx="2" fill="#00B23B" opacity="0.4"/>
  <rect x="155" y="122" width="26" height="6" rx="2" fill="#00B23B" opacity="0.4"/>
  <rect x="203" y="122" width="26" height="6" rx="2" fill="#00B23B" opacity="0.4"/>
  <rect x="251" y="122" width="42" height="6" rx="2" fill="#006AFF" opacity="0.3"/>
  <rect x="80" y="85" width="240" height="18" rx="4" fill="#222"/>
  <circle cx="200" cy="94" r="4" fill="#006AFF" opacity="0.5"/>
</svg>
